<svg width="202" height="73" viewBox="0 0 202 73" fill="none" xmlns="http://www.w3.org/2000/svg">
<g filter="url(#filter0_di_1_299)">
<circle cx="166.278" cy="31.7895" r="13.7895" fill="url(#paint0_linear_1_299)"/>
</g>
<rect x="163.28" y="23.9955" width="5.99545" height="15.5882" rx="0.899318" fill="white"/>
<rect x="174.072" y="28.7917" width="5.99545" height="15.5882" rx="0.899318" transform="rotate(90 174.072 28.7917)" fill="white"/>
<path d="M26.9001 30.6283C26.9001 33.5447 26.3473 36.0257 25.2417 38.0715C24.1448 40.1173 22.6474 41.68 20.7496 42.7595C18.8605 43.8302 16.7364 44.3656 14.3772 44.3656C12.0006 44.3656 9.86771 43.8259 7.97861 42.7464C6.08951 41.6669 4.59651 40.1043 3.49962 38.0585C2.40272 36.0127 1.85428 33.536 1.85428 30.6283C1.85428 27.712 2.40272 25.2309 3.49962 23.1851C4.59651 21.1393 6.08951 19.581 7.97861 18.5102C9.86771 17.4308 12.0006 16.891 14.3772 16.891C16.7364 16.891 18.8605 17.4308 20.7496 18.5102C22.6474 19.581 24.1448 21.1393 25.2417 23.1851C26.3473 25.2309 26.9001 27.712 26.9001 30.6283ZM21.1675 30.6283C21.1675 28.7392 20.8845 27.1461 20.3187 25.849C19.7615 24.5519 18.9737 23.5681 17.9551 22.8978C16.9366 22.2275 15.7439 21.8923 14.3772 21.8923C13.0104 21.8923 11.8177 22.2275 10.7992 22.8978C9.78065 23.5681 8.98845 24.5519 8.42259 25.849C7.86544 27.1461 7.58686 28.7392 7.58686 30.6283C7.58686 32.5174 7.86544 34.1105 8.42259 35.4077C8.98845 36.7048 9.78065 37.6885 10.7992 38.3588C11.8177 39.0291 13.0104 39.3643 14.3772 39.3643C15.7439 39.3643 16.9366 39.0291 17.9551 38.3588C18.9737 37.6885 19.7615 36.7048 20.3187 35.4077C20.8845 34.1105 21.1675 32.5174 21.1675 30.6283ZM30.984 44V23.9425H36.2857V27.4813H36.5207C36.9386 26.306 37.635 25.3789 38.6101 24.6999C39.5851 24.0208 40.7516 23.6813 42.1097 23.6813C43.4852 23.6813 44.656 24.0252 45.6224 24.7129C46.5887 25.392 47.2329 26.3147 47.555 27.4813H47.7639C48.1731 26.3322 48.913 25.4137 49.9838 24.726C51.0633 24.0295 52.3387 23.6813 53.8099 23.6813C55.6816 23.6813 57.2007 24.2776 58.3672 25.4703C59.5425 26.6543 60.1301 28.3344 60.1301 30.5108V44H54.5803V31.6077C54.5803 30.4934 54.2844 29.6577 53.6924 29.1005C53.1004 28.5434 52.3604 28.2648 51.4725 28.2648C50.4626 28.2648 49.6748 28.5869 49.1089 29.2311C48.5431 29.8666 48.2601 30.7067 48.2601 31.7513V44H42.8671V31.4902C42.8671 30.5064 42.5841 29.7229 42.0183 29.1397C41.4611 28.5564 40.7255 28.2648 39.8114 28.2648C39.1933 28.2648 38.6362 28.4215 38.14 28.7349C37.6525 29.0396 37.2651 29.4705 36.9778 30.0276C36.6905 30.5761 36.5469 31.2203 36.5469 31.9603V44H30.984ZM70.2437 44.3787C68.964 44.3787 67.8236 44.1567 66.8225 43.7127C65.8213 43.26 65.0291 42.5941 64.4459 41.7148C63.8713 40.8268 63.584 39.7212 63.584 38.398C63.584 37.2837 63.7886 36.3478 64.1978 35.5905C64.6069 34.8331 65.1641 34.2237 65.8692 33.7623C66.5744 33.3009 67.3753 32.9527 68.2719 32.7176C69.1773 32.4826 70.1262 32.3172 71.1186 32.2214C72.2852 32.0996 73.2254 31.9864 73.9392 31.8819C74.6531 31.7687 75.1711 31.6033 75.4932 31.3857C75.8153 31.1681 75.9763 30.846 75.9763 30.4194V30.341C75.9763 29.514 75.7152 28.8742 75.1928 28.4215C74.6792 27.9688 73.9479 27.7424 72.999 27.7424C71.9979 27.7424 71.2013 27.9644 70.6094 28.4084C70.0174 28.8437 69.6257 29.3921 69.4341 30.0538L64.2892 29.6359C64.5503 28.4171 65.064 27.3638 65.83 26.4758C66.5961 25.5791 67.5842 24.8914 68.7943 24.4126C70.013 23.9251 71.4233 23.6813 73.0252 23.6813C74.1395 23.6813 75.2059 23.8119 76.2244 24.0731C77.2517 24.3342 78.1614 24.739 78.9536 25.2875C79.7545 25.8359 80.3857 26.5411 80.8471 27.4029C81.3085 28.2561 81.5392 29.279 81.5392 30.4716V44H76.2636V41.2186H76.1069C75.7848 41.8454 75.3539 42.3982 74.8141 42.877C74.2744 43.3471 73.6258 43.7171 72.8685 43.9869C72.1111 44.2481 71.2362 44.3787 70.2437 44.3787ZM71.8369 40.5396C72.6552 40.5396 73.3777 40.3785 74.0045 40.0564C74.6313 39.7256 75.1232 39.2816 75.4801 38.7245C75.837 38.1673 76.0155 37.5362 76.0155 36.831V34.7025C75.8414 34.8157 75.602 34.9201 75.2973 35.0159C75.0013 35.103 74.6661 35.1857 74.2918 35.264C73.9175 35.3337 73.5431 35.3989 73.1688 35.4599C72.7945 35.5121 72.4549 35.56 72.1503 35.6035C71.4973 35.6993 70.9271 35.8516 70.4396 36.0606C69.9521 36.2695 69.5734 36.5524 69.3035 36.9094C69.0337 37.2576 68.8987 37.6929 68.8987 38.2152C68.8987 38.9726 69.173 39.5515 69.7214 39.9519C70.2786 40.3437 70.9837 40.5396 71.8369 40.5396ZM96.5235 23.9425V28.1211H84.4446V23.9425H96.5235ZM87.1869 19.137H92.7497V37.8365C92.7497 38.3501 92.828 38.7506 92.9847 39.0379C93.1414 39.3164 93.3591 39.5123 93.6377 39.6255C93.9249 39.7386 94.2557 39.7952 94.6301 39.7952C94.8912 39.7952 95.1524 39.7735 95.4136 39.7299C95.6747 39.6777 95.875 39.6385 96.0143 39.6124L96.8892 43.7519C96.6106 43.8389 96.2188 43.9391 95.7139 44.0522C95.209 44.1741 94.5953 44.2481 93.8727 44.2742C92.532 44.3265 91.3568 44.148 90.347 43.7388C89.3458 43.3297 88.5667 42.6942 88.0095 41.8323C87.4524 40.9705 87.1782 39.8823 87.1869 38.5678V19.137ZM105.867 44.3787C104.587 44.3787 103.447 44.1567 102.445 43.7127C101.444 43.26 100.652 42.5941 100.069 41.7148C99.4943 40.8268 99.207 39.7212 99.207 38.398C99.207 37.2837 99.4116 36.3478 99.8207 35.5905C100.23 34.8331 100.787 34.2237 101.492 33.7623C102.197 33.3009 102.998 32.9527 103.895 32.7176C104.8 32.4826 105.749 32.3172 106.742 32.2214C107.908 32.0996 108.848 31.9864 109.562 31.8819C110.276 31.7687 110.794 31.6033 111.116 31.3857C111.438 31.1681 111.599 30.846 111.599 30.4194V30.341C111.599 29.514 111.338 28.8742 110.816 28.4215C110.302 27.9688 109.571 27.7424 108.622 27.7424C107.621 27.7424 106.824 27.9644 106.232 28.4084C105.64 28.8437 105.249 29.3921 105.057 30.0538L99.9122 29.6359C100.173 28.4171 100.687 27.3638 101.453 26.4758C102.219 25.5791 103.207 24.8914 104.417 24.4126C105.636 23.9251 107.046 23.6813 108.648 23.6813C109.762 23.6813 110.829 23.8119 111.847 24.0731C112.875 24.3342 113.784 24.739 114.577 25.2875C115.378 25.8359 116.009 26.5411 116.47 27.4029C116.931 28.2561 117.162 29.279 117.162 30.4716V44H111.887V41.2186H111.73C111.408 41.8454 110.977 42.3982 110.437 42.877C109.897 43.3471 109.249 43.7171 108.491 43.9869C107.734 44.2481 106.859 44.3787 105.867 44.3787ZM107.46 40.5396C108.278 40.5396 109.001 40.3785 109.628 40.0564C110.254 39.7256 110.746 39.2816 111.103 38.7245C111.46 38.1673 111.638 37.5362 111.638 36.831V34.7025C111.464 34.8157 111.225 34.9201 110.92 35.0159C110.624 35.103 110.289 35.1857 109.915 35.264C109.54 35.3337 109.166 35.3989 108.792 35.4599C108.417 35.5121 108.078 35.56 107.773 35.6035C107.12 35.6993 106.55 35.8516 106.063 36.0606C105.575 36.2695 105.196 36.5524 104.927 36.9094C104.657 37.2576 104.522 37.6929 104.522 38.2152C104.522 38.9726 104.796 39.5515 105.344 39.9519C105.902 40.3437 106.607 40.5396 107.46 40.5396ZM121.582 44V17.2566H127.145V27.3115H127.315C127.559 26.7718 127.911 26.2233 128.373 25.6662C128.843 25.1003 129.452 24.6302 130.201 24.2559C130.958 23.8728 131.898 23.6813 133.021 23.6813C134.484 23.6813 135.833 24.0644 137.069 24.8304C138.306 25.5878 139.294 26.7326 140.034 28.2648C140.774 29.7882 141.144 31.6991 141.144 33.9974C141.144 36.2347 140.782 38.1238 140.06 39.6647C139.346 41.1968 138.371 42.359 137.135 43.1512C135.907 43.9347 134.532 44.3265 133.008 44.3265C131.929 44.3265 131.01 44.148 130.253 43.7911C129.504 43.4341 128.891 42.9858 128.412 42.4461C127.933 41.8976 127.567 41.3448 127.315 40.7877H127.067V44H121.582ZM127.028 33.9712C127.028 35.1639 127.193 36.2042 127.524 37.0922C127.855 37.9801 128.333 38.6722 128.96 39.1684C129.587 39.6559 130.349 39.8997 131.245 39.8997C132.151 39.8997 132.917 39.6516 133.544 39.1554C134.171 38.6505 134.645 37.954 134.967 37.0661C135.298 36.1694 135.463 35.1378 135.463 33.9712C135.463 32.8134 135.302 31.7949 134.98 30.9156C134.658 30.0363 134.184 29.3486 133.557 28.8524C132.93 28.3562 132.16 28.1081 131.245 28.1081C130.34 28.1081 129.574 28.3475 128.947 28.8263C128.329 29.3051 127.855 29.9841 127.524 30.8634C127.193 31.7426 127.028 32.7786 127.028 33.9712Z" fill="#4461F2"/>
<defs>
<filter id="filter0_di_1_299" x="130.655" y="0.763071" width="71.246" height="71.246" filterUnits="userSpaceOnUse" color-interpolation-filters="sRGB">
<feFlood flood-opacity="0" result="BackgroundImageFix"/>
<feColorMatrix in="SourceAlpha" type="matrix" values="0 0 0 0 0 0 0 0 0 0 0 0 0 0 0 0 0 0 127 0" result="hardAlpha"/>
<feOffset dy="4.59651"/>
<feGaussianBlur stdDeviation="10.9167"/>
<feComposite in2="hardAlpha" operator="out"/>
<feColorMatrix type="matrix" values="0 0 0 0 0.0862745 0 0 0 0 0.470588 0 0 0 0 0.94902 0 0 0 0.2 0"/>
<feBlend mode="normal" in2="BackgroundImageFix" result="effect1_dropShadow_1_299"/>
<feBlend mode="normal" in="SourceGraphic" in2="effect1_dropShadow_1_299" result="shape"/>
<feColorMatrix in="SourceAlpha" type="matrix" values="0 0 0 0 0 0 0 0 0 0 0 0 0 0 0 0 0 0 127 0" result="hardAlpha"/>
<feOffset dy="4.59651"/>
<feGaussianBlur stdDeviation="2.29826"/>
<feComposite in2="hardAlpha" operator="arithmetic" k2="-1" k3="1"/>
<feColorMatrix type="matrix" values="0 0 0 0 0 0 0 0 0 0 0 0 0 0 0 0 0 0 0.12 0"/>
<feBlend mode="normal" in2="shape" result="effect2_innerShadow_1_299"/>
</filter>
<linearGradient id="paint0_linear_1_299" x1="150.342" y1="7.18467" x2="213.023" y2="13.9285" gradientUnits="userSpaceOnUse">
<stop stop-color="#3A8EF6"/>
<stop offset="1" stop-color="#6F3AFA"/>
</linearGradient>
</defs>
</svg>
